<svg xmlns="http://www.w3.org/2000/svg" width="50" height="60" viewBox="-1.895 -1.624 50 60"><path fill="#FFF" d="M38.593 30.15c.08 8.59 7.535 11.447 7.617 11.483-.062.202-1.19 4.073-3.927 8.072-2.365 3.457-4.82 6.9-8.688 6.973-3.8.07-5.02-2.253-9.365-2.253-4.344 0-5.702 2.182-9.298 2.323-3.733.142-6.576-3.74-8.96-7.184-4.876-7.046-8.6-19.91-3.598-28.593 2.484-4.31 6.926-7.04 11.743-7.11 3.666-.07 7.126 2.47 9.366 2.47s6.444-3.05 10.865-2.6c1.85.08 7.044.75 10.38 5.63-.27.17-6.197 3.62-6.135 10.8m-7.14-21.09c1.982-2.4 3.316-5.74 2.952-9.06-2.857.12-6.312 1.91-8.36 4.3-1.837 2.12-3.445 5.52-3.01 8.78 3.183.25 6.435-1.62 8.418-4.02"/></svg>