<svg xmlns="http://www.w3.org/2000/svg" width="78.672" height="63.789" viewBox="0 0 78.672 63.789"><path d="M72.354 39.632c-2.797-2.4-6.637-3.604-11.518-3.604h-5.67c.473-4.08 1.277-7.397 2.42-9.948 1.142-2.55 2.854-5.044 5.14-7.477 2.362-2.51 4.685-4.53 6.97-6.063 2.283-1.53 5.274-3.356 8.98-5.477L74.42 0c-2.44 1.495-5.475 3.42-9.096 5.78-3.623 2.358-7.05 5.227-10.277 8.606-3.15 3.302-5.83 7.056-8.032 11.26-2.206 4.205-3.308 8.86-3.308 13.97 0 7.233 1.455 13.07 4.37 17.513 2.913 4.437 7.755 6.66 14.53 6.66 4.33 0 7.736-1.438 10.217-4.313 2.48-2.875 3.72-5.967 3.72-9.273 0-4.646-1.397-8.17-4.19-10.573zM19.02 18.602c2.36-2.51 4.684-4.53 6.97-6.062 2.282-1.53 5.273-3.356 8.977-5.477L30.713 0c-2.44 1.495-5.475 3.42-9.095 5.78-3.624 2.358-7.05 5.227-10.278 8.606-3.15 3.302-5.828 7.056-8.032 11.26C1.103 29.852 0 34.506 0 39.616c0 7.233 1.457 13.07 4.37 17.51 2.913 4.44 7.757 6.664 14.53 6.664 4.33 0 7.737-1.438 10.218-4.313s3.722-5.968 3.722-9.272c0-4.646-1.4-8.17-4.194-10.572-2.796-2.4-6.635-3.604-11.517-3.604h-5.673c.473-4.083 1.3-7.418 2.48-10.01 1.182-2.59 2.874-5.063 5.08-7.42z" fill="#F2F2F2"/></svg>