<svg xmlns="http://www.w3.org/2000/svg" width="50" height="25" viewBox="-13.067 -0.567 50 25"><path fill="#FFF" d="M15.087 11.366l8.56-8.56c.293-.292.293-.767 0-1.06L21.554-.347c-.14-.14-.33-.22-.53-.22s-.39.08-.53.22l-8.56 8.56-8.56-8.56c-.284-.282-.78-.282-1.063 0L.22 1.746c-.293.293-.293.768 0 1.06l8.56 8.56-8.56 8.56c-.293.292-.293.767 0 1.06l2.093 2.094c.14.14.33.22.53.22s.39-.08.53-.22l8.56-8.56 8.56 8.56c.142.14.332.22.53.22s.39-.08.53-.22l2.094-2.094c.293-.293.293-.768 0-1.06l-8.56-8.56z"/></svg>