<svg xmlns="http://www.w3.org/2000/svg" width="50" height="60" viewBox="-3.958 -6.479 50 60"><path fill="#A4C639" d="M34.144 14.01h-26.2c-.008.11-.017.22-.017.332v18.754c0 1.926 1.457 3.49 3.316 3.628v7.433c0 1.594 1.29 2.885 2.885 2.885 1.593 0 2.885-1.29 2.885-2.885v-7.42h8.058v7.42c0 1.594 1.3 2.885 2.89 2.885s2.89-1.29 2.89-2.885v-7.433c1.86-.137 3.32-1.702 3.32-3.628V14.342c0-.113 0-.223-.01-.333h-.01zM2.886 15.68c1.593 0 2.886 1.29 2.886 2.884v12.378c0 1.595-1.292 2.886-2.886 2.886S0 32.538 0 30.942V18.564c0-1.594 1.292-2.885 2.886-2.885zm36.312 0c1.595 0 2.886 1.29 2.886 2.884v12.378c0 1.595-1.29 2.886-2.886 2.886-1.594 0-2.885-1.29-2.885-2.886V18.564c0-1.594 1.29-2.885 2.885-2.885zM8.03 11.967h26.025c-.04-2.783-1.234-5.322-3.186-7.275L33.31.457c.082-.146.032-.33-.112-.415-.145-.084-.33-.034-.414.11l-2.37 4.108c-2.053-1.853-4.82-3.1-7.925-3.4h-2.9c-3.1.3-5.87 1.547-7.93 3.4L9.29.152c-.08-.145-.27-.194-.41-.11-.14.083-.19.27-.11.414l2.45 4.234c-1.95 1.96-3.15 4.498-3.19 7.28v-.003zm17.293-5.163c-.002-.805.664-1.46 1.49-1.462.824-.002 1.493.648 1.496 1.454v.008c0 .805-.67 1.46-1.49 1.462-.83.002-1.5-.65-1.5-1.454v-.008zm-11.143 0c0-.805.665-1.46 1.49-1.462.823-.002 1.493.648 1.496 1.454v.008c.002.805-.664 1.46-1.488 1.462-.825.002-1.495-.65-1.498-1.454v-.008z"/></svg>